{"title":"The Bourne Ultimatum Eng FxM","uid":5809510,"size":840576584,"categoryP":"video","categoryS":"other","magnet":"?xt=urn:btih:7177b9cf96c9e5aabf0ec7ec155f7f5c1cf02921&amp;dn=The+Bourne+Ultimatum+Eng+FxM&amp;tr=udp%3A%2F%2Ftracker.openbittorrent.com%3A80&amp;tr=udp%3A%2F%2Fopen.demonii.com%3A1337&amp;tr=udp%3A%2F%2Ftracker.coppersurfer.tk%3A6969&amp;tr=udp%3A%2F%2Fexodus.desync.com%3A6969","seeders":1,"leechers":0,"uploader":"kuttunni","files":2,"time":1283574377,"description":"Duration: 01:48:05.14, start: 0.000000, bitrate: 1036 kb/s\nStream #0.0: Video: mpeg4, yuv420p, 672x284 [PAR 1:1 DAR 168:71], 23.98 tbr, 23.98 tbn, 23.98 tbc\nStream #0.1: Audio: ac3, 48000 Hz, stereo, s16, 128 kb/s","torrent":{"xt":"urn:btih:7177b9cf96c9e5aabf0ec7ec155f7f5c1cf02921","amp;dn":"The+Bourne+Ultimatum+Eng+FxM","amp;tr":["udp%3A%2F%2Ftracker.openbittorrent.com%3A80","udp%3A%2F%2Fopen.demonii.com%3A1337","udp%3A%2F%2Ftracker.coppersurfer.tk%3A6969","udp%3A%2F%2Fexodus.desync.com%3A6969"],"infoHash":"7177b9cf96c9e5aabf0ec7ec155f7f5c1cf02921","infoHashBuffer":{"type":"Buffer","data":[113,119,185,207,150,201,229,170,191,14,199,236,21,95,127,92,28,240,41,33]},"announce":[],"urlList":[]}}